
<svg width="64" height="64" viewBox="0 0 32 32" preserveAspectRatio="xMidYMid" xml:space="preserve" xmlns="http://www.w3.org/2000/svg">
  <g style="fill:#000">
    <path style="fill:#fff;fill-opacity:1;stroke-width:1.00878" d="M8.144 30.648c-.476-.104-.977-.17-1.43-.313-.451-.143-1.274-.531-1.274-.531l-1.275-.531-1.247-.82-1.247-.818-1.083-.996-1.082-.996 4.487-2.3 4.486-2.3h.254l.395.744.395.744.893 1.083s.322.547.894 1.084.563.488 1.281.94c.719.452 1.281.774 1.281.774l1.297.407 1.297.407 1.208.118 1.207.119.516-.113.516-.114V26.8l.462-.175.747-.267.174.224.719-.315.32-.143.299-.081.533.796.479.765-.095.25-.096.248-.678.271-.678.272-.154.084.154.208-.378.244-.402.168-.44.19-.346.122-.046-.309-.07-.24h-.128l-1.143.43-1.142.431-1.694.422-1.693.421-2.522.073s-1.57.218-2.522.072c-.953-.145-.953-.208-1.43-.313m-10.73-7.798-.822-1.22-.289-.561-.29-.562.055-.04.055-.038 5.128-2.287 5.128-2.287c.186-.077.331-.127.496-.216l.449 1.853.494 1.746-.047.034-.047.035-4.657 2.38-4.656 2.382h-.177zm-2.717-4.95-.348-.787-.433-1.39-.433-1.388-.362-.052-.361-.051-.557-1.053-.557-1.054.097-.306.098-.307 6.764-2.89 6.765-2.89s.218-.104.342-.134c.125-.029.167.166.167.166l.028.503.051.525.057 1.022.065 1.03.162 2.434.224 2.295s.01.075-.047.164c-.058.088-.125.094-.125.094l-5.42 2.398-5.506 2.46h-.322z" transform="translate(8.354 -2.265)"/>
  </g>
</svg>