<?xml version="1.0" encoding="utf-8" ?>
<svg xmlns="http://www.w3.org/2000/svg" xmlns:xlink="http://www.w3.org/1999/xlink" width="1024" height="1024">
	<defs>
		<linearGradient id="gradient_3" gradientUnits="userSpaceOnUse" x1="484.69421" y1="432.88351" x2="516.46716" y2="758.60852">
			<stop offset="0" stop-color="#7BDAF6"/>
			<stop offset="1" stop-color="#8BF1F8"/>
		</linearGradient>
	</defs>
	<path fill="url(#gradient_3)" d="M224.202 732.44Q224.012 728.912 223.91 725.381Q223.807 721.849 223.793 718.316Q223.778 714.783 223.851 711.251Q223.923 707.719 224.084 704.19Q224.244 700.66 224.492 697.136Q224.74 693.612 225.075 690.095Q225.41 686.578 225.832 683.07Q226.254 679.562 226.763 676.066Q227.272 672.57 227.868 669.088Q228.464 665.606 229.145 662.139Q229.827 658.672 230.594 655.224Q231.362 651.775 232.214 648.347Q233.067 644.918 234.005 641.512Q234.942 638.106 235.964 634.724Q236.985 631.342 238.09 627.986Q239.195 624.63 240.383 621.303Q241.571 617.976 242.841 614.679Q244.111 611.382 245.463 608.118Q246.814 604.854 248.246 601.624Q249.678 598.394 251.19 595.201Q252.701 592.008 254.292 588.853Q255.882 585.698 257.55 582.584Q259.218 579.469 260.962 576.397Q262.707 573.325 264.527 570.297Q266.348 567.269 268.243 564.287Q270.137 561.305 272.106 558.372Q274.074 555.438 276.114 552.553Q278.154 549.669 280.265 546.836Q282.377 544.004 284.557 541.224Q286.738 538.444 288.987 535.72Q291.236 532.995 293.552 530.327Q295.868 527.659 298.249 525.049Q300.654 522.42 303.123 519.851Q305.592 517.282 308.123 514.775Q310.654 512.268 313.247 509.824Q315.839 507.38 318.491 505Q321.143 502.621 323.853 500.307Q326.563 497.994 329.328 495.748Q332.094 493.502 334.915 491.325Q337.735 489.147 340.608 487.04Q343.481 484.933 346.406 482.898Q349.33 480.862 352.303 478.899Q355.277 476.937 358.298 475.048Q361.319 473.159 364.385 471.344Q367.452 469.53 370.562 467.793Q373.673 466.055 376.825 464.394Q379.977 462.733 383.169 461.151Q386.361 459.568 389.592 458.065Q392.822 456.561 396.088 455.138Q399.354 453.714 402.655 452.372Q405.955 451.029 409.287 449.769Q412.62 448.508 415.982 447.33Q419.345 446.151 422.735 445.056Q426.126 443.961 429.542 442.95Q432.959 441.939 436.399 441.012Q439.839 440.085 443.301 439.244Q446.763 438.402 450.245 437.646Q453.727 436.89 457.226 436.22Q460.726 435.55 464.241 434.966Q467.755 434.382 471.283 433.886Q474.812 433.389 478.351 432.979Q481.89 432.569 485.438 432.247Q488.987 431.924 492.542 431.689Q496.097 431.454 499.657 431.307C576.522 427.819 652.041 457.652 708.514 509.412Q711.133 511.804 713.691 514.26Q716.249 516.715 718.746 519.234Q721.242 521.753 723.675 524.333Q726.108 526.914 728.476 529.553Q730.844 532.193 733.146 534.891Q735.447 537.589 737.681 540.344Q739.915 543.098 742.08 545.907Q744.244 548.716 746.339 551.579Q748.432 554.441 750.455 557.354Q752.477 560.267 754.426 563.23Q756.375 566.193 758.25 569.203Q760.125 572.213 761.924 575.269Q763.724 578.325 765.446 581.425Q767.169 584.525 768.814 587.667Q770.459 590.808 772.026 593.99Q773.592 597.172 775.079 600.391Q776.566 603.611 777.972 606.867Q779.379 610.122 780.703 613.412Q782.028 616.701 783.271 620.023Q784.514 623.344 785.673 626.696Q786.833 630.047 787.909 633.427Q788.985 636.806 789.976 640.211Q790.968 643.616 791.874 647.044Q792.781 650.473 793.602 653.923Q794.422 657.373 795.157 660.842Q795.892 664.312 796.54 667.798Q797.189 671.285 797.75 674.787Q798.311 678.288 798.786 681.803Q799.26 685.317 799.646 688.843Q800.033 692.368 800.331 695.902Q800.63 699.435 800.841 702.976Q801.051 706.516 801.174 710.06C801.496 717.537 801.3 724.929 800.975 732.401C786.395 729.594 772.701 728.338 757.824 728.5L758.24 726.706C761.247 725.049 763.659 723.029 764.705 719.635C766.639 713.363 764.578 704.228 763.776 697.804C759.384 662.666 750.385 629.574 732.722 598.685C699.536 540.65 644.457 495.361 579.611 477.753Q576.6 476.934 573.57 476.189Q570.54 475.444 567.493 474.774Q564.445 474.103 561.383 473.507Q558.32 472.911 555.244 472.39Q552.167 471.868 549.079 471.423Q545.991 470.977 542.893 470.606Q539.794 470.236 536.688 469.941Q533.582 469.647 530.469 469.428Q527.357 469.209 524.24 469.067Q521.123 468.924 518.003 468.858Q514.884 468.791 511.763 468.801Q508.643 468.811 505.524 468.896Q502.405 468.982 499.289 469.144Q496.173 469.306 493.062 469.544Q489.951 469.782 486.846 470.096Q483.742 470.41 480.646 470.8Q477.55 471.19 474.465 471.655Q471.38 472.12 468.307 472.66Q465.233 473.2 462.175 473.816Q459.116 474.431 456.073 475.12Q453.029 475.81 450.004 476.574Q446.979 477.338 443.973 478.175Q440.967 479.012 437.983 479.923Q434.998 480.833 432.037 481.817Q429.076 482.8 426.139 483.855Q423.203 484.91 420.293 486.036Q417.383 487.163 414.502 488.36Q411.621 489.557 408.769 490.825Q405.918 492.092 403.099 493.428Q400.279 494.765 397.493 496.17Q394.707 497.575 391.956 499.047Q389.205 500.52 386.491 502.059Q383.799 503.607 381.145 505.221Q378.492 506.835 375.879 508.513Q373.265 510.192 370.694 511.934Q368.123 513.676 365.595 515.48Q363.068 517.285 360.585 519.15Q358.102 521.016 355.666 522.943Q353.229 524.869 350.841 526.854Q348.453 528.839 346.114 530.883Q343.775 532.926 341.487 535.026Q339.198 537.126 336.962 539.281Q334.726 541.436 332.544 543.646Q330.361 545.856 328.234 548.118Q326.106 550.38 324.034 552.694Q321.963 555.008 319.948 557.372Q317.934 559.736 315.978 562.149Q314.022 564.561 312.126 567.021Q310.23 569.481 308.395 571.986Q306.56 574.492 304.787 577.042Q303.014 579.591 301.303 582.184Q299.593 584.776 297.947 587.41Q296.301 590.043 294.72 592.717Q293.139 595.39 291.624 598.101Q290.109 600.812 288.661 603.559Q287.212 606.307 285.832 609.089Q284.452 611.871 283.14 614.686Q281.828 617.501 280.585 620.348Q279.343 623.194 278.171 626.07Q276.998 628.946 275.897 631.85Q274.796 634.754 273.766 637.684Q272.736 640.614 271.778 643.568Q270.82 646.522 269.935 649.499Q269.05 652.476 268.238 655.474Q265.85 664.389 264.083 673.448Q262.316 682.507 261.178 691.666Q260.041 700.826 259.538 710.041Q259.035 719.257 259.17 728.486C247.353 729.176 235.874 730.444 224.202 732.44Z"/>
	<defs>
		<linearGradient id="gradient_4" gradientUnits="userSpaceOnUse" x1="500.39691" y1="482.97583" x2="516.76642" y2="751.91376">
			<stop offset="0" stop-color="#A560F1"/>
			<stop offset="1" stop-color="#B382F8"/>
		</linearGradient>
	</defs>
	<path fill="url(#gradient_4)" d="M273.503 730.761L273.423 723.229Q273.373 720.297 273.396 717.365Q273.42 714.432 273.517 711.501Q273.614 708.57 273.784 705.643Q273.955 702.716 274.198 699.793Q274.442 696.871 274.759 693.956Q275.076 691.04 275.465 688.134Q275.855 685.227 276.318 682.332Q276.78 679.436 277.315 676.553Q277.85 673.669 278.457 670.801Q279.064 667.932 279.743 665.079Q280.422 662.226 281.172 659.391Q281.922 656.556 282.743 653.741Q283.563 650.926 284.454 648.132Q285.346 645.338 286.306 642.568Q287.267 639.797 288.297 637.051Q289.327 634.306 290.426 631.587Q291.524 628.868 292.69 626.177Q293.857 623.487 295.09 620.826Q296.323 618.166 297.623 615.537Q298.923 612.908 300.288 610.313Q301.653 607.718 303.082 605.157Q304.512 602.597 306.005 600.073Q307.499 597.55 309.055 595.064Q310.611 592.579 312.229 590.133Q313.847 587.687 315.526 585.283Q317.205 582.878 318.943 580.517Q320.682 578.155 322.479 575.838Q324.276 573.521 326.131 571.249Q327.985 568.978 329.896 566.754Q331.807 564.529 333.773 562.354Q335.739 560.178 337.759 558.052Q339.779 555.926 341.852 553.852Q343.925 551.732 346.051 549.664Q348.176 547.596 350.353 545.581Q352.529 543.567 354.755 541.607Q356.98 539.648 359.254 537.744Q361.528 535.84 363.849 533.994Q366.169 532.147 368.535 530.359Q370.9 528.571 373.31 526.842Q375.719 525.113 378.171 523.445Q380.623 521.777 383.115 520.17Q385.608 518.563 388.139 517.019Q390.671 515.474 393.241 513.994Q395.81 512.513 398.415 511.096Q401.021 509.68 403.66 508.329Q406.3 506.978 408.973 505.693Q411.645 504.407 414.349 503.189Q417.053 501.971 419.786 500.821Q422.519 499.67 425.28 498.588Q428.041 497.506 430.828 496.493Q433.616 495.479 436.427 494.536Q439.238 493.593 442.072 492.719Q444.906 491.846 447.761 491.044Q450.616 490.241 453.49 489.51Q456.364 488.779 459.255 488.119Q462.147 487.46 465.053 486.873Q467.96 486.285 470.881 485.771Q473.801 485.256 476.734 484.814Q479.666 484.372 482.608 484.003Q485.551 483.634 488.502 483.339Q491.452 483.043 494.41 482.821Q497.367 482.599 500.329 482.451Q503.29 482.302 506.255 482.228Q509.219 482.153 512.185 482.152C575.881 481.896 635.195 507.188 680.203 551.979Q681.971 553.728 683.701 555.514Q685.432 557.299 687.126 559.12Q688.819 560.941 690.474 562.797Q692.13 564.653 693.746 566.542Q695.362 568.432 696.939 570.355Q698.516 572.278 700.052 574.233Q701.588 576.189 703.084 578.175Q704.579 580.162 706.033 582.18Q707.487 584.197 708.899 586.244Q710.31 588.292 711.679 590.368Q713.048 592.444 714.373 594.548Q715.699 596.652 716.98 598.783Q718.261 600.914 719.498 603.071Q720.735 605.229 721.927 607.411Q723.118 609.594 724.265 611.801Q725.411 614.007 726.511 616.238Q727.611 618.468 728.664 620.72Q729.718 622.973 730.724 625.247Q731.731 627.521 732.69 629.815Q733.649 632.109 734.56 634.423Q735.471 636.737 736.334 639.069Q737.197 641.401 738.011 643.751Q738.825 646.101 739.59 648.467Q740.356 650.833 741.071 653.214Q741.787 655.595 742.454 657.991Q743.12 660.387 743.736 662.796Q744.353 665.205 744.919 667.627Q745.485 670.048 746.001 672.481Q746.517 674.913 746.982 677.356Q747.447 679.799 747.861 682.251Q748.276 684.703 748.639 687.163Q749.002 689.623 749.314 692.09C750.619 703.142 750.563 714.159 750.585 725.265C753.093 725.887 755.696 726.251 758.24 726.706L757.824 728.5C741.748 731.231 726.478 734.972 711.625 741.889L708.989 738.846C706.871 740.119 703.581 741.784 701.021 741.052C699.357 740.576 698.305 739.559 697.566 738.029C694.748 732.193 697.174 719.688 697.093 713.009C697.024 707.331 696.601 701.556 695.953 695.918Q695.568 692.835 695.079 689.766Q694.591 686.697 694 683.646Q693.409 680.595 692.717 677.566Q692.024 674.536 691.23 671.532Q690.436 668.527 689.542 665.551Q688.648 662.575 687.655 659.63Q686.662 656.686 685.571 653.776Q684.479 650.867 683.291 647.995Q682.103 645.124 680.82 642.294Q679.536 639.464 678.159 636.678Q676.781 633.892 675.311 631.155Q673.841 628.417 672.28 625.73Q670.719 623.043 669.069 620.41Q667.419 617.776 665.681 615.2Q663.944 612.623 662.121 610.106Q660.299 607.59 658.393 605.135Q656.487 602.681 654.5 600.292Q652.513 597.902 650.447 595.581Q648.381 593.26 646.238 591.009Q644.096 588.758 641.879 586.58Q639.662 584.402 637.374 582.3Q635.085 580.198 632.728 578.173Q630.37 576.149 627.946 574.204Q625.522 572.26 623.034 570.398Q620.547 568.535 617.998 566.758Q615.449 564.98 612.842 563.288Q610.235 561.597 607.573 559.994Q604.911 558.391 602.197 556.877Q599.483 555.364 596.719 553.943Q593.956 552.522 591.146 551.194Q588.337 549.865 585.484 548.632Q582.632 547.399 579.74 546.262Q577.597 545.447 575.435 544.684Q573.272 543.922 571.092 543.212Q568.912 542.502 566.715 541.845Q564.518 541.189 562.306 540.586Q560.094 539.983 557.868 539.435Q555.642 538.886 553.403 538.392Q551.164 537.897 548.914 537.458Q546.664 537.018 544.404 536.633Q542.143 536.248 539.874 535.919Q537.605 535.589 535.329 535.315Q533.053 535.041 530.77 534.822Q528.488 534.603 526.201 534.44Q523.914 534.277 521.624 534.17Q519.333 534.062 517.041 534.011Q514.749 533.959 512.456 533.964Q510.163 533.968 507.871 534.028Q505.579 534.088 503.289 534.204Q501 534.32 498.713 534.492Q496.427 534.663 494.145 534.891Q491.864 535.118 489.589 535.401Q487.313 535.683 485.045 536.022Q482.778 536.36 480.519 536.753Q478.26 537.146 476.012 537.594Q473.763 538.042 471.526 538.545Q469.289 539.048 467.065 539.605Q464.841 540.162 462.631 540.773Q460.421 541.384 458.227 542.049Q456.032 542.714 453.855 543.432Q451.677 544.15 449.518 544.921Q447.359 545.691 445.219 546.514Q443.079 547.338 440.96 548.213Q438.84 549.088 436.743 550.014Q434.636 550.924 432.553 551.887Q430.47 552.849 428.411 553.863Q426.352 554.876 424.319 555.941Q422.286 557.005 420.28 558.119Q418.274 559.234 416.296 560.398Q414.318 561.562 412.37 562.774Q410.422 563.987 408.504 565.247Q406.587 566.508 404.701 567.816Q402.815 569.123 400.962 570.477Q399.109 571.831 397.291 573.231Q395.472 574.63 393.689 576.075Q391.905 577.519 390.158 579.007Q388.411 580.495 386.702 582.026Q384.992 583.557 383.321 585.13Q381.65 586.702 380.019 588.316Q378.387 589.93 376.796 591.584Q375.205 593.237 373.655 594.93Q372.106 596.623 370.599 598.353Q369.092 600.084 367.628 601.851Q366.164 603.619 364.745 605.422Q363.325 607.225 361.951 609.063Q360.577 610.901 359.249 612.772Q357.92 614.644 356.639 616.547Q355.357 618.451 354.124 620.386Q352.89 622.321 351.704 624.286Q350.519 626.251 349.382 628.244Q348.246 630.238 347.159 632.259Q346.073 634.281 345.036 636.328Q344 638.376 343.015 640.448Q342.03 642.521 341.097 644.617Q340.163 646.714 339.282 648.833Q338.401 650.952 337.573 653.092C331.061 669.838 326.625 688.109 325.538 706.076C325.008 714.823 327.185 728.798 324.342 736.626C323.865 737.939 323.099 739.103 321.761 739.666C319.593 740.579 316.694 739.752 314.513 739.234C314.139 740.441 313.816 741.697 313.366 742.875C300.751 736.772 287.258 733.148 273.503 730.761Z"/>
	<path fill="#49316D" d="M314.513 739.234C313.717 738.335 313.111 737.409 312.623 736.313C310.647 731.883 311.111 725.409 311.14 720.587Q311.145 715.75 311.385 710.919Q311.624 706.088 312.098 701.274Q312.572 696.46 313.279 691.675Q313.987 686.889 314.925 682.144Q315.864 677.399 317.032 672.705Q318.2 668.011 319.595 663.379Q320.99 658.748 322.608 654.189Q324.226 649.631 326.063 645.156Q327.026 642.856 328.044 640.581Q329.063 638.305 330.137 636.055Q331.21 633.805 332.339 631.582Q333.467 629.359 334.649 627.164Q335.831 624.969 337.066 622.803Q338.302 620.638 339.59 618.503Q340.877 616.368 342.217 614.265Q343.556 612.163 344.947 610.093Q346.337 608.024 347.778 605.989Q349.218 603.954 350.708 601.955Q352.197 599.956 353.735 597.993Q355.273 596.031 356.858 594.107Q358.444 592.183 360.075 590.298Q361.707 588.413 363.385 586.568Q365.062 584.724 366.784 582.921Q368.505 581.117 370.271 579.357Q372.036 577.596 373.843 575.879Q375.651 574.162 377.5 572.49Q379.349 570.818 381.238 569.191Q383.127 567.564 385.056 565.984Q386.984 564.403 388.95 562.871Q390.917 561.338 392.92 559.854Q394.923 558.369 396.962 556.934Q399 555.499 401.073 554.114Q403.146 552.729 405.253 551.395Q407.359 550.061 409.497 548.779Q411.635 547.497 413.804 546.268Q415.973 545.038 418.171 543.861Q420.369 542.685 422.595 541.563Q424.821 540.44 427.074 539.372Q429.327 538.305 431.605 537.292Q433.884 536.28 436.186 535.323Q438.445 534.385 440.726 533.504Q443.008 532.622 445.31 531.797Q447.613 530.972 449.935 530.203Q452.257 529.435 454.597 528.724Q456.937 528.013 459.294 527.36Q461.651 526.707 464.023 526.112Q466.396 525.517 468.782 524.98Q471.168 524.444 473.567 523.966Q475.966 523.489 478.376 523.071Q480.785 522.652 483.205 522.293Q485.624 521.934 488.051 521.635Q490.479 521.336 492.913 521.096Q495.347 520.857 497.786 520.678Q500.225 520.498 502.668 520.379Q505.111 520.259 507.556 520.2Q510.002 520.141 512.447 520.142Q514.893 520.143 517.338 520.204Q519.783 520.265 522.226 520.386Q524.669 520.507 527.108 520.689Q529.547 520.87 531.981 521.112Q534.415 521.353 536.842 521.654Q539.269 521.955 541.688 522.316Q544.107 522.677 546.517 523.097Q548.926 523.517 551.325 523.997Q553.723 524.476 556.109 525.014Q558.495 525.552 560.867 526.149Q563.239 526.746 565.595 527.401Q567.952 528.056 570.291 528.769Q572.631 529.482 574.952 530.252Q577.274 531.022 579.576 531.849Q581.877 532.676 584.158 533.559Q586.439 534.443 588.697 535.382Q590.965 536.321 593.209 537.316Q595.453 538.311 597.671 539.361Q599.89 540.411 602.082 541.516Q604.275 542.62 606.439 543.778Q608.603 544.936 610.738 546.147Q612.873 547.358 614.978 548.622Q617.082 549.885 619.155 551.2Q621.228 552.515 623.267 553.881Q625.307 555.246 627.312 556.662Q629.318 558.078 631.288 559.542Q633.257 561.007 635.19 562.519Q637.124 564.032 639.019 565.592Q640.914 567.152 642.77 568.758Q644.626 570.364 646.442 572.016Q648.258 573.667 650.033 575.363Q651.808 577.059 653.54 578.798Q655.272 580.537 656.961 582.318Q658.65 584.099 660.295 585.922Q661.939 587.744 663.538 589.606Q665.137 591.469 666.69 593.37Q668.242 595.271 669.747 597.21Q671.253 599.149 672.71 601.125Q674.167 603.1 675.574 605.111Q676.982 607.122 678.34 609.167Q679.698 611.212 681.005 613.289Q682.312 615.367 683.567 617.477Q684.822 619.586 686.025 621.726Q687.228 623.865 688.378 626.034Q689.527 628.203 690.623 630.399Q691.719 632.595 692.761 634.818Q693.802 637.041 694.788 639.289Q695.775 641.536 696.705 643.808Q698.472 648.136 700.036 652.54Q701.6 656.945 702.958 661.418Q704.317 665.891 705.466 670.422Q706.615 674.952 707.554 679.532Q708.491 684.111 709.216 688.729Q709.941 693.347 710.451 697.993Q710.96 702.64 711.254 707.305Q711.548 711.97 711.625 716.644C711.753 724.15 711.934 731.802 708.989 738.846C706.871 740.119 703.581 741.784 701.021 741.052C699.357 740.576 698.305 739.559 697.566 738.029C694.748 732.193 697.174 719.688 697.093 713.009C697.024 707.331 696.601 701.556 695.953 695.918Q695.568 692.835 695.079 689.766Q694.591 686.697 694 683.646Q693.409 680.595 692.717 677.566Q692.024 674.536 691.23 671.532Q690.436 668.527 689.542 665.551Q688.648 662.575 687.655 659.63Q686.662 656.686 685.571 653.776Q684.479 650.867 683.291 647.995Q682.103 645.124 680.82 642.294Q679.536 639.464 678.159 636.678Q676.781 633.892 675.311 631.155Q673.841 628.417 672.28 625.73Q670.719 623.043 669.069 620.41Q667.419 617.776 665.681 615.2Q663.944 612.623 662.121 610.106Q660.299 607.59 658.393 605.135Q656.487 602.681 654.5 600.292Q652.513 597.902 650.447 595.581Q648.381 593.26 646.238 591.009Q644.096 588.758 641.879 586.58Q639.662 584.402 637.374 582.3Q635.085 580.198 632.728 578.173Q630.37 576.149 627.946 574.204Q625.522 572.26 623.034 570.398Q620.547 568.535 617.998 566.758Q615.449 564.98 612.842 563.288Q610.235 561.597 607.573 559.994Q604.911 558.391 602.197 556.877Q599.483 555.364 596.719 553.943Q593.956 552.522 591.146 551.194Q588.337 549.865 585.484 548.632Q582.632 547.399 579.74 546.262Q577.597 545.447 575.435 544.684Q573.272 543.922 571.092 543.212Q568.912 542.502 566.715 541.845Q564.518 541.189 562.306 540.586Q560.094 539.983 557.868 539.435Q555.642 538.886 553.403 538.392Q551.164 537.897 548.914 537.458Q546.664 537.018 544.404 536.633Q542.143 536.248 539.874 535.919Q537.605 535.589 535.329 535.315Q533.053 535.041 530.77 534.822Q528.488 534.603 526.201 534.44Q523.914 534.277 521.624 534.17Q519.333 534.062 517.041 534.011Q514.749 533.959 512.456 533.964Q510.163 533.968 507.871 534.028Q505.579 534.088 503.289 534.204Q501 534.32 498.713 534.492Q496.427 534.663 494.145 534.891Q491.864 535.118 489.589 535.401Q487.313 535.683 485.045 536.022Q482.778 536.36 480.519 536.753Q478.26 537.146 476.012 537.594Q473.763 538.042 471.526 538.545Q469.289 539.048 467.065 539.605Q464.841 540.162 462.631 540.773Q460.421 541.384 458.227 542.049Q456.032 542.714 453.855 543.432Q451.677 544.15 449.518 544.921Q447.359 545.691 445.219 546.514Q443.079 547.338 440.96 548.213Q438.84 549.088 436.743 550.014Q434.636 550.924 432.553 551.887Q430.47 552.849 428.411 553.863Q426.352 554.876 424.319 555.941Q422.286 557.005 420.28 558.119Q418.274 559.234 416.296 560.398Q414.318 561.562 412.37 562.774Q410.422 563.987 408.504 565.247Q406.587 566.508 404.701 567.816Q402.815 569.123 400.962 570.477Q399.109 571.831 397.291 573.231Q395.472 574.63 393.689 576.075Q391.905 577.519 390.158 579.007Q388.411 580.495 386.702 582.026Q384.992 583.557 383.321 585.13Q381.65 586.702 380.019 588.316Q378.387 589.93 376.796 591.584Q375.205 593.237 373.655 594.93Q372.106 596.623 370.599 598.353Q369.092 600.084 367.628 601.851Q366.164 603.619 364.745 605.422Q363.325 607.225 361.951 609.063Q360.577 610.901 359.249 612.772Q357.92 614.644 356.639 616.547Q355.357 618.451 354.124 620.386Q352.89 622.321 351.704 624.286Q350.519 626.251 349.382 628.244Q348.246 630.238 347.159 632.259Q346.073 634.281 345.036 636.328Q344 638.376 343.015 640.448Q342.03 642.521 341.097 644.617Q340.163 646.714 339.282 648.833Q338.401 650.952 337.573 653.092C331.061 669.838 326.625 688.109 325.538 706.076C325.008 714.823 327.185 728.798 324.342 736.626C323.865 737.939 323.099 739.103 321.761 739.666C319.593 740.579 316.694 739.752 314.513 739.234Z"/>
	<path fill="#BFFF3D" d="M379.063 405.868C463.21 371.132 556.333 369.322 640.73 404.5C690.104 425.079 740.304 460.662 772.935 503.396C774.619 504.865 776.193 507.068 777.658 508.808C785.668 518.322 792.606 529.127 799.276 539.605C840.646 604.604 856.92 679.041 850.377 755.449C846.027 753.085 842.049 750.018 837.86 747.377C830.461 742.714 822.677 739.358 814.391 736.625Q814.793 727.159 814.818 717.684C814.272 636.516 781.619 561.907 723.883 505.12C668.946 451.086 590.448 417.487 513.092 418.211C494.357 418.386 475.371 419.621 456.901 422.892Q454.068 423.41 451.246 423.983Q448.424 424.555 445.614 425.181Q442.803 425.807 440.005 426.487Q437.207 427.167 434.422 427.9Q431.638 428.633 428.867 429.42Q426.097 430.206 423.343 431.045Q420.588 431.884 417.85 432.776Q415.112 433.668 412.392 434.612Q409.671 435.556 406.969 436.551Q404.267 437.547 401.585 438.594Q398.903 439.641 396.241 440.74Q393.579 441.838 390.939 442.987Q388.298 444.136 385.68 445.335Q383.062 446.535 380.468 447.784Q377.874 449.033 375.303 450.331Q372.733 451.63 370.188 452.977Q367.644 454.325 365.125 455.721Q362.606 457.117 360.115 458.56Q357.623 460.004 355.16 461.495Q352.697 462.986 350.262 464.524Q347.828 466.062 345.423 467.647Q343.019 469.231 340.645 470.861Q338.271 472.491 335.929 474.166Q333.587 475.841 331.277 477.56Q328.967 479.28 326.691 481.043Q324.414 482.807 322.172 484.613Q319.929 486.42 317.722 488.269Q315.515 490.118 313.343 492.009Q311.172 493.9 309.036 495.832Q306.901 497.764 304.804 499.737Q302.706 501.71 300.646 503.722Q298.587 505.735 296.566 507.786Q294.435 509.928 292.349 512.113Q290.262 514.299 288.22 516.526Q286.178 518.753 284.182 521.021Q282.185 523.289 280.236 525.597Q278.286 527.905 276.383 530.252Q274.48 532.599 272.626 534.984Q270.771 537.37 268.966 539.792Q267.16 542.215 265.403 544.673Q263.647 547.132 261.941 549.626Q260.235 552.119 258.58 554.647Q256.925 557.175 255.322 559.736Q253.718 562.297 252.167 564.89Q250.616 567.483 249.118 570.107Q247.62 572.73 246.175 575.384Q244.731 578.038 243.34 580.72Q241.95 583.403 240.614 586.113Q239.278 588.823 237.998 591.56Q236.718 594.297 235.493 597.059Q234.268 599.821 233.1 602.608Q231.932 605.394 230.82 608.204Q229.709 611.013 228.655 613.845Q227.6 616.676 226.604 619.529Q225.607 622.381 224.669 625.253Q223.73 628.125 222.85 631.016Q221.97 633.906 221.149 636.814Q220.328 639.721 219.566 642.645Q218.804 645.569 218.102 648.508Q217.399 651.446 216.756 654.399Q216.114 657.351 215.531 660.316Q214.948 663.28 214.426 666.256Q213.904 669.232 213.442 672.218Q212.98 675.204 212.579 678.199C210.112 697.392 209.908 716.683 210.105 736.001C196.937 741.291 184.982 748.254 173.037 755.852C172.101 696.061 175.256 645.69 198.412 589.768Q199.766 586.554 201.183 583.367Q202.601 580.181 204.081 577.023Q205.562 573.865 207.106 570.738Q208.649 567.61 210.255 564.514Q211.86 561.418 213.527 558.355Q215.194 555.291 216.922 552.262Q218.65 549.232 220.438 546.238Q222.226 543.243 224.073 540.285Q225.92 537.327 227.826 534.406Q229.732 531.485 231.696 528.603Q233.66 525.721 235.681 522.878Q237.702 520.036 239.779 517.234Q241.856 514.432 243.989 511.673Q246.121 508.913 248.309 506.197Q250.496 503.48 252.737 500.808Q254.978 498.136 257.272 495.509Q259.566 492.882 261.912 490.301Q264.258 487.72 266.655 485.186Q269.052 482.653 271.499 480.168Q273.945 477.683 276.441 475.247Q278.938 472.811 281.482 470.425Q284.026 468.04 286.617 465.705Q289.208 463.371 291.845 461.089Q294.483 458.807 297.165 456.577Q299.847 454.348 302.573 452.173Q305.3 449.998 308.069 447.878Q310.838 445.757 313.649 443.693Q316.459 441.628 319.311 439.62Q322.162 437.611 325.053 435.66Q327.944 433.709 330.873 431.817Q333.803 429.924 336.769 428.09Q339.736 426.256 342.738 424.481C354.409 417.597 366.532 411.054 379.063 405.868Z"/>
	<path fill="#FEFEFE" d="M379.063 405.868C463.21 371.132 556.333 369.322 640.73 404.5C690.104 425.079 740.304 460.662 772.935 503.396C772.382 503.588 771.603 503.917 770.998 503.962C766.543 504.297 758.929 493.779 755.804 490.554Q751.96 486.633 747.92 482.915Q744.343 479.54 740.67 476.269Q736.998 472.998 733.232 469.834Q729.467 466.67 725.612 463.616Q721.758 460.562 717.817 457.62Q713.876 454.678 709.852 451.851Q705.828 449.023 701.724 446.313Q697.62 443.602 693.44 441.011Q689.26 438.42 685.007 435.95Q680.755 433.48 676.432 431.134Q672.11 428.787 667.722 426.566Q663.334 424.345 658.884 422.251Q654.434 420.157 649.926 418.192Q645.418 416.227 640.854 414.393Q636.291 412.558 631.677 410.856Q627.063 409.154 622.402 407.585Q617.741 406.016 613.037 404.582Q608.333 403.147 603.589 401.849Q598.846 400.551 594.067 399.39Q589.288 398.229 584.477 397.206Q579.667 396.183 574.829 395.298Q569.991 394.414 565.13 393.669Q560.268 392.925 555.388 392.32Q550.507 391.716 545.611 391.252Q540.715 390.788 535.807 390.465Q530.9 390.143 525.985 389.961Q521.071 389.78 516.153 389.74Q511.235 389.7 506.318 389.802Q501.401 389.903 496.489 390.146Q491.577 390.39 486.674 390.774Q481.771 391.158 476.881 391.684Q471.991 392.209 467.118 392.875Q462.246 393.54 457.394 394.346Q435.401 397.759 414.02 403.938C409.027 405.377 385.031 413.992 382.448 414.093C382.887 413.287 382.688 413.558 383.236 412.893C383.358 412.745 383.485 412.601 383.609 412.455C383.106 411.784 382.607 411.176 382.03 410.563C381.088 409.564 381.024 408.146 380.702 406.821L379.063 405.868Z"/>
	<defs>
		<linearGradient id="gradient_5" gradientUnits="userSpaceOnUse" x1="509.87222" y1="799.93384" x2="528.1286" y2="329.62146">
			<stop offset="0" stop-color="#FF9021"/>
			<stop offset="1" stop-color="#FCB3A7"/>
		</linearGradient>
	</defs>
	<path fill="url(#gradient_5)" d="M288.385 399.271L288.829 399.046C295.501 395.564 301.592 390.735 307.994 386.763Q328.739 373.707 350.938 363.314Q354.942 361.504 358.987 359.786Q363.031 358.067 367.113 356.441Q371.195 354.814 375.313 353.28Q379.431 351.746 383.583 350.306Q387.734 348.866 391.917 347.52Q396.1 346.174 400.313 344.923Q404.525 343.672 408.765 342.516Q413.004 341.361 417.269 340.302Q421.534 339.243 425.822 338.281Q430.109 337.318 434.417 336.453Q438.726 335.588 443.052 334.821Q447.379 334.053 451.722 333.384Q456.065 332.715 460.422 332.144Q464.779 331.573 469.148 331.101Q473.517 330.629 477.895 330.255Q482.274 329.882 486.66 329.608Q491.045 329.334 495.436 329.16Q499.827 328.985 504.221 328.91Q508.614 328.834 513.008 328.859Q517.403 328.883 521.795 329.006Q526.188 329.13 530.576 329.353Q534.965 329.576 539.347 329.898Q543.73 330.22 548.104 330.641Q552.478 331.062 556.841 331.583Q561.205 332.103 565.555 332.721Q569.906 333.34 574.241 334.057Q578.577 334.774 582.895 335.589Q587.213 336.404 591.511 337.316Q595.81 338.228 600.087 339.238Q604.363 340.247 608.616 341.353Q612.869 342.459 617.096 343.661Q621.323 344.863 625.521 346.16C664.392 358.097 701.351 375.438 734.128 399.61Q745.077 407.667 755.557 416.325C760.323 420.235 765.072 424.686 770.282 427.977C783.568 440.695 796.631 453.508 808.586 467.508C866.507 535.333 900.27 618.651 902.218 708.066C902.637 727.313 902.019 746.609 901.976 765.862Q902 782.152 901.789 798.44C901.754 802.824 902.082 807.29 901.853 811.661C901.767 813.286 901.486 814.874 900.507 816.212L898.322 816.7C894.707 813.384 888.405 798.343 884.84 792.788C878.428 782.798 870.718 773.999 862.349 765.633C863.113 754.006 865.056 742.521 865.443 730.832Q865.547 727.428 865.585 724.023Q865.622 720.619 865.593 717.214Q865.565 713.809 865.47 710.405Q865.374 707.001 865.213 703.6Q865.051 700.198 864.823 696.801Q864.596 693.404 864.301 690.011Q864.007 686.619 863.647 683.233Q863.287 679.847 862.861 676.468Q862.435 673.09 861.943 669.721Q861.451 666.351 860.893 662.992Q860.336 659.633 859.713 656.285Q859.09 652.938 858.402 649.603Q857.714 646.268 856.961 642.947Q856.208 639.626 855.39 636.321Q854.573 633.015 853.691 629.726Q852.809 626.437 851.863 623.166Q850.917 619.895 849.907 616.643Q848.898 613.391 847.825 610.159Q846.753 606.928 845.617 603.718Q844.481 600.507 843.283 597.32Q842.086 594.132 840.826 590.969Q839.566 587.805 838.244 584.667Q836.923 581.529 835.541 578.417Q834.159 575.305 832.716 572.221Q831.273 569.136 829.771 566.081Q828.268 563.025 826.706 559.999Q825.144 556.973 823.524 553.979Q821.903 550.984 820.224 548.021Q818.546 545.059 816.81 542.129Q815.073 539.2 813.28 536.305Q811.488 533.41 809.639 530.551Q807.789 527.692 805.885 524.869C793.535 506.594 779.148 489.543 764.094 473.45Q761.188 470.388 758.208 467.398Q755.228 464.407 752.176 461.491Q749.124 458.574 746.002 455.732Q742.88 452.89 739.69 450.126Q736.499 447.361 733.243 444.674Q729.986 441.988 726.665 439.382Q723.344 436.776 719.96 434.251Q716.577 431.726 713.133 429.285Q709.689 426.843 706.186 424.486Q702.684 422.13 699.125 419.859Q695.567 417.588 691.954 415.404Q688.341 413.22 684.676 411.125Q681.01 409.03 677.295 407.025Q673.58 405.02 669.818 403.106Q666.055 401.191 662.247 399.37Q658.439 397.548 654.587 395.819Q650.736 394.09 646.843 392.456Q642.951 390.821 639.02 389.282Q635.089 387.743 631.122 386.3Q627.154 384.857 623.153 383.511Q619.152 382.165 615.119 380.916Q611.086 379.668 607.024 378.519Q602.962 377.369 598.873 376.318Q594.784 375.268 590.671 374.317Q586.558 373.367 582.423 372.517Q578.288 371.667 574.133 370.917Q569.978 370.168 565.807 369.52Q561.635 368.872 557.449 368.326Q553.263 367.78 549.065 367.336Q544.867 366.892 540.659 366.55Q536.451 366.209 532.236 365.97Q528.021 365.73 523.802 365.594Q519.529 365.45 515.254 365.41Q510.979 365.371 506.704 365.436Q502.43 365.501 498.158 365.672Q493.886 365.842 489.62 366.117Q485.353 366.392 481.095 366.772Q476.837 367.151 472.589 367.635Q468.341 368.119 464.107 368.707Q459.872 369.295 455.653 369.987Q451.434 370.678 447.233 371.473Q443.033 372.268 438.853 373.166Q434.673 374.064 430.516 375.064Q426.36 376.064 422.229 377.166Q418.098 378.268 413.996 379.471Q409.893 380.673 405.821 381.977Q401.75 383.28 397.711 384.682Q393.672 386.085 389.669 387.586Q385.666 389.087 381.701 390.686Q377.737 392.285 373.812 393.981Q369.887 395.677 366.006 397.468Q362.124 399.26 358.287 401.146Q354.451 403.033 350.662 405.012Q346.872 406.992 343.133 409.064Q339.393 411.137 335.706 413.3Q332.018 415.463 328.385 417.716Q324.752 419.969 321.175 422.311Q317.598 424.652 314.079 427.081Q310.561 429.51 307.103 432.024Q303.646 434.538 300.25 437.136Q296.855 439.735 293.525 442.416Q290.195 445.096 286.931 447.858Q283.668 450.62 280.473 453.461Q277.278 456.302 274.154 459.22C211.56 518.293 171.635 592.41 161.804 678.36C158.789 704.717 159.373 730.819 158.579 757.259C158.399 759.368 158.244 761.439 158.279 763.558C152.577 766.818 147.086 771.096 140.173 769.153C136.679 768.172 127.016 761.889 124.177 763.657C123.112 764.32 122.489 765.712 122.154 766.843L121.539 766.256C121.537 765.417 121.56 764.59 121.587 763.751C121.614 762.92 121.568 762.241 121.435 761.428C121.138 736.612 120.979 711.583 122.861 686.821C129.585 598.372 170.823 510.772 232.673 447.533Q249.745 429.918 268.706 414.353C275.125 409.159 282.112 404.646 288.385 399.271Z"/>

	<path fill="url(#gradient_6)" d="M314.513 739.234C316.694 739.752 319.593 740.579 321.761 739.666C323.099 739.103 323.865 737.939 324.342 736.626C327.185 728.798 325.008 714.823 325.538 706.076C326.625 688.109 331.061 669.838 337.573 653.092Q338.401 650.952 339.282 648.833Q340.163 646.714 341.097 644.617Q342.03 642.521 343.015 640.448Q344 638.376 345.036 636.328Q346.073 634.281 347.159 632.259Q348.246 630.238 349.382 628.244Q350.519 626.251 351.704 624.286Q352.89 622.321 354.123 620.386Q355.357 618.451 356.639 616.547Q357.92 614.644 359.249 612.772Q360.577 610.901 361.951 609.063Q363.325 607.225 364.745 605.422Q366.164 603.619 367.628 601.852Q369.092 600.084 370.599 598.353Q372.106 596.623 373.655 594.93Q375.205 593.237 376.796 591.584Q378.387 589.93 380.019 588.316Q381.65 586.702 383.321 585.13Q384.992 583.557 386.702 582.026Q388.411 580.495 390.158 579.007Q391.905 577.519 393.689 576.075Q395.472 574.63 397.291 573.231Q399.109 571.831 400.962 570.477Q402.815 569.123 404.701 567.816Q406.587 566.508 408.504 565.247Q410.422 563.987 412.37 562.774Q414.318 561.562 416.296 560.398Q418.274 559.234 420.28 558.119Q422.286 557.005 424.319 555.941Q426.352 554.876 428.411 553.863Q430.47 552.849 432.553 551.887Q434.636 550.924 436.743 550.014Q438.84 549.088 440.96 548.213Q443.079 547.338 445.219 546.514Q447.359 545.691 449.518 544.921Q451.677 544.15 453.855 543.432Q456.032 542.714 458.227 542.049Q460.421 541.384 462.631 540.773Q464.841 540.162 467.065 539.605Q469.289 539.048 471.526 538.545Q473.763 538.042 476.012 537.594Q478.26 537.146 480.519 536.753Q482.778 536.36 485.046 536.022Q487.313 535.683 489.589 535.401Q491.864 535.118 494.145 534.891Q496.427 534.663 498.713 534.492Q501 534.32 503.289 534.204Q505.579 534.088 507.871 534.028Q510.163 533.968 512.456 533.964Q514.749 533.959 517.041 534.011Q519.333 534.062 521.624 534.17Q523.914 534.277 526.201 534.44Q528.488 534.603 530.77 534.822Q533.053 535.041 535.329 535.315Q537.605 535.589 539.874 535.919Q542.143 536.248 544.404 536.633Q546.664 537.018 548.914 537.458Q551.164 537.897 553.403 538.392Q555.642 538.886 557.868 539.435Q560.094 539.983 562.306 540.586Q564.518 541.189 566.715 541.845Q568.912 542.502 571.092 543.212Q573.272 543.922 575.435 544.684Q577.597 545.447 579.74 546.262Q582.632 547.399 585.484 548.632Q588.337 549.865 591.146 551.193Q593.956 552.522 596.719 553.943Q599.483 555.364 602.197 556.877Q604.911 558.391 607.573 559.994Q610.235 561.597 612.842 563.288Q615.449 564.98 617.998 566.758Q620.547 568.535 623.034 570.398Q625.522 572.26 627.946 574.204Q630.37 576.149 632.728 578.173Q635.085 580.198 637.374 582.3Q639.662 584.402 641.879 586.58Q644.096 588.758 646.238 591.009Q648.381 593.26 650.447 595.581Q652.513 597.902 654.5 600.292Q656.487 602.681 658.393 605.135Q660.299 607.59 662.121 610.106Q663.944 612.623 665.681 615.2Q667.419 617.776 669.069 620.41Q670.719 623.043 672.28 625.73Q673.841 628.417 675.311 631.155Q676.781 633.892 678.159 636.678Q679.536 639.464 680.82 642.294Q682.103 645.124 683.291 647.995Q684.479 650.867 685.571 653.776Q686.662 656.686 687.655 659.63Q688.648 662.575 689.542 665.551Q690.436 668.527 691.23 671.532Q692.024 674.536 692.717 677.566Q693.409 680.595 694 683.646Q694.591 686.697 695.079 689.766Q695.568 692.835 695.953 695.918C696.601 701.556 697.024 707.331 697.093 713.009C697.174 719.688 694.748 732.193 697.566 738.029C698.305 739.559 699.357 740.576 701.021 741.052C703.581 741.784 706.871 740.119 708.989 738.846L711.625 741.889C689.172 755.034 670.55 770.323 657.354 793.299C629.795 786.899 602.564 787.786 578.024 803.088C570.281 807.916 562.672 814.162 557.165 821.487C546.782 830.952 539.482 853.03 535.828 866.44C520.075 862.443 504.485 862.535 488.793 866.613C482.422 843.517 473.245 821.26 452.411 807.331C450.384 805.575 448.121 804.025 445.868 802.579C421.878 787.187 395.656 787.463 368.722 793.317C353.865 772.512 336.369 754.693 313.366 742.875C313.816 741.697 314.139 740.441 314.513 739.234Z"/>
	<defs>
		<linearGradient id="gradient_7" gradientUnits="userSpaceOnUse" x1="509.58884" y1="839.25122" x2="519.35803" y2="283.96231">
			<stop offset="0" stop-color="#FB0869"/>
			<stop offset="1" stop-color="#FF65B3"/>
		</linearGradient>
	</defs>
	<path fill="url(#gradient_7)" d="M56.9413 674.561C59.0494 664.344 60.1425 653.826 61.8139 643.519Q65.5198 620.213 71.853 597.48Q73.2412 592.388 74.744 587.328Q76.2467 582.268 77.8632 577.244Q79.4796 572.219 81.209 567.233Q82.9383 562.246 84.7797 557.299Q86.6211 552.353 88.5735 547.449Q90.526 542.545 92.5885 537.687Q94.651 532.828 96.8226 528.018Q98.9942 523.207 101.274 518.446Q103.553 513.686 105.939 508.978Q108.326 504.27 110.818 499.617Q113.309 494.964 115.906 490.369Q118.502 485.773 121.201 481.238Q123.9 476.702 126.701 472.228Q129.501 467.754 132.402 463.345Q135.303 458.935 138.303 454.592Q141.302 450.249 144.399 445.975Q147.496 441.701 150.688 437.498Q153.88 433.294 157.167 429.164Q160.453 425.034 163.832 420.979Q167.21 416.924 170.68 412.946Q174.149 408.968 177.707 405.07Q181.265 401.171 184.91 397.354Q188.555 393.536 192.285 389.802Q196.015 386.068 199.829 382.419Q203.642 378.77 207.537 375.208Q211.432 371.645 215.406 368.172Q219.38 364.699 223.432 361.316Q227.483 357.933 231.61 354.642Q235.737 351.351 239.936 348.154Q244.136 344.958 248.407 341.856Q252.678 338.755 257.018 335.751Q261.358 332.747 265.764 329.841Q270.355 326.815 275.019 323.903Q279.683 320.99 284.417 318.193Q289.151 315.396 293.952 312.715Q298.753 310.035 303.618 307.473Q308.484 304.911 313.41 302.469Q318.337 300.027 323.322 297.706Q328.307 295.386 333.347 293.188Q338.387 290.99 343.48 288.917Q348.573 286.843 353.715 284.895Q358.857 282.947 364.045 281.126Q369.233 279.304 374.464 277.611Q379.696 275.917 384.967 274.352Q390.238 272.786 395.546 271.351Q400.854 269.916 406.195 268.611Q411.537 267.306 416.909 266.132Q422.281 264.958 427.68 263.917Q433.079 262.875 438.502 261.966Q443.925 261.057 449.368 260.281Q454.812 259.505 460.273 258.863Q465.734 258.221 471.209 257.713Q476.684 257.204 482.17 256.831Q487.656 256.457 493.149 256.217Q498.643 255.978 504.14 255.873Q509.638 255.769 515.136 255.799Q520.635 255.829 526.131 255.994Q531.627 256.159 537.118 256.458Q542.608 256.758 548.09 257.192Q553.571 257.625 559.04 258.194Q564.51 258.762 569.963 259.464Q575.417 260.166 580.852 261.001Q586.286 261.837 591.699 262.805Q597.112 263.773 602.499 264.874Q606.97 265.798 611.422 266.812Q615.873 267.826 620.303 268.93Q624.733 270.034 629.14 271.227Q633.547 272.421 637.929 273.703Q642.31 274.986 646.665 276.357Q651.02 277.728 655.346 279.187Q659.672 280.646 663.968 282.192Q668.264 283.739 672.527 285.372Q676.791 287.005 681.02 288.724Q685.25 290.443 689.444 292.248Q693.637 294.052 697.794 295.942Q701.95 297.831 706.067 299.804Q710.185 301.777 714.261 303.833Q718.338 305.889 722.371 308.027Q726.405 310.165 730.395 312.384Q734.385 314.604 738.329 316.904Q742.273 319.204 746.17 321.583Q750.066 323.962 753.914 326.42Q757.761 328.878 761.558 331.413Q765.355 333.948 769.1 336.56Q772.845 339.171 776.536 341.858Q780.227 344.545 783.863 347.306Q787.499 350.068 791.078 352.902Q794.658 355.736 798.179 358.643Q801.7 361.549 805.161 364.526Q808.623 367.503 812.023 370.549Q815.424 373.596 818.762 376.711Q822.1 379.826 825.374 383.007Q828.648 386.189 831.857 389.437Q835.066 392.684 838.209 395.996Q841.351 399.308 844.426 402.683Q847.501 406.058 850.507 409.494Q862.546 423.3 873.543 437.95Q884.54 452.599 894.436 468.013C928.442 519.846 949.737 580.522 961.193 641.204Q963.952 655.323 965.595 669.614C966.35 676.197 966.622 683.217 967.96 689.69Q969.691 728.071 969.91 766.491C970.052 786.197 969.717 805.938 970.111 825.639C969.616 823.816 969.148 823.115 967.738 821.871L967.728 819.625L967.189 819.365C967.004 819.494 966.825 819.63 966.635 819.752C962.433 822.458 960.256 818.285 953.963 827.148C953.988 828.266 954.116 829.294 953.578 830.317C950.844 831.012 942.886 825.089 939.785 823.811L939.271 823.605C931.957 819.858 924.226 818.031 916.151 816.818C916.579 795.291 916.072 773.726 916.03 752.193C915.962 717.859 916.326 683.554 910.669 649.566C898.498 576.451 863.579 509.445 814.856 454.049C805.168 443.034 795.389 430.915 783.41 422.35C776.658 420.481 772.771 412.711 766.291 409.556C765.549 411.208 764.856 412.838 764.234 414.54C763.47 416.634 760.698 417.628 760.735 418.794L760.607 418.211C760.7 418.387 760.773 418.574 760.884 418.739C763.358 422.382 768.743 423.053 770.282 427.977C765.072 424.686 760.323 420.235 755.557 416.325Q745.077 407.667 734.128 399.61C701.351 375.438 664.392 358.097 625.521 346.16Q621.323 344.863 617.096 343.661Q612.869 342.459 608.616 341.353Q604.363 340.247 600.087 339.238Q595.81 338.228 591.511 337.316Q587.213 336.404 582.895 335.589Q578.577 334.774 574.241 334.057Q569.906 333.34 565.555 332.721Q561.205 332.103 556.841 331.583Q552.478 331.062 548.104 330.641Q543.73 330.22 539.347 329.898Q534.965 329.576 530.576 329.353Q526.188 329.13 521.795 329.006Q517.403 328.883 513.008 328.859Q508.614 328.834 504.221 328.91Q499.827 328.985 495.436 329.16Q491.045 329.334 486.66 329.608Q482.274 329.882 477.895 330.255Q473.517 330.629 469.148 331.101Q464.779 331.573 460.422 332.144Q456.065 332.715 451.722 333.384Q447.379 334.053 443.052 334.821Q438.726 335.588 434.417 336.453Q430.109 337.318 425.822 338.281Q421.534 339.243 417.269 340.302Q413.004 341.361 408.765 342.516Q404.525 343.672 400.313 344.923Q396.1 346.174 391.917 347.52Q387.734 348.866 383.583 350.306Q379.431 351.746 375.313 353.28Q371.195 354.814 367.113 356.441Q363.031 358.067 358.987 359.786Q354.942 361.504 350.938 363.314Q328.739 373.707 307.994 386.763C301.592 390.735 295.501 395.564 288.829 399.046L288.385 399.271C282.112 404.646 275.125 409.159 268.706 414.353Q249.745 429.918 232.673 447.533C170.823 510.772 129.585 598.372 122.861 686.821C120.979 711.583 121.138 736.612 121.435 761.428C121.568 762.241 121.614 762.92 121.587 763.751C121.56 764.59 121.537 765.417 121.539 766.256L122.154 766.843C122.489 765.712 123.112 764.32 124.177 763.657C127.016 761.889 136.679 768.172 140.173 769.153C147.086 771.096 152.577 766.818 158.279 763.558C158.244 761.439 158.399 759.368 158.579 757.259Q158.889 762.613 159.128 767.971C152.943 775.318 145.974 782.744 141.189 791.087C136.354 797.318 130.567 813.043 126.389 816.86C125.616 817.567 124.37 817.783 123.378 818.009C122.516 818.689 121.659 819.239 120.706 819.784C119.409 819.478 117.641 818.76 116.366 818.674C114.354 818.538 112.513 821.009 109.969 820.572L109.661 819.97C109.077 818.851 108.728 818.385 107.685 817.699C91.6456 821.283 81.7469 824.648 68.0683 834.12C68.0432 829.879 68.1911 825.561 67.9446 821.33C66.1707 819.867 68.4812 793.573 65.4982 787.751C64.7326 788.563 65.154 788.235 64.2539 788.759C63.147 787.408 62.1564 786.11 61.3093 784.578L61.0982 784.189C60.1641 784.164 59.3012 784.078 58.4509 784.559C52.9173 787.689 57.2355 806.24 55.3547 811.963C55.2584 812.256 55.1447 812.543 55.0397 812.833C54.2956 797.67 54.9525 782.202 54.9198 767C54.8534 736.093 54.7092 705.416 56.9413 674.561Z"/>
	<path fill="#805B93" d="M287.562 383.302C299.181 372.921 315.372 365.461 329.251 358.552C395.172 325.738 461.177 311.766 534.805 315.841Q538.293 316.031 541.776 316.282Q545.26 316.533 548.739 316.846Q552.218 317.158 555.691 317.532Q559.163 317.906 562.629 318.341Q566.095 318.776 569.552 319.272Q573.01 319.768 576.458 320.325Q579.906 320.882 583.344 321.5Q586.781 322.117 590.208 322.796Q593.634 323.474 597.048 324.212Q600.462 324.951 603.862 325.75Q607.263 326.548 610.648 327.407Q614.034 328.265 617.404 329.183Q620.774 330.101 624.127 331.079Q627.481 332.056 630.816 333.092Q634.152 334.129 637.468 335.224Q640.785 336.319 644.082 337.472Q647.379 338.625 650.655 339.837Q653.931 341.048 657.185 342.317Q660.44 343.586 663.671 344.912Q666.902 346.238 670.11 347.621Q673.317 349.003 676.5 350.443Q679.682 351.882 682.839 353.377Q685.996 354.872 689.125 356.423Q692.255 357.973 695.357 359.579Q698.459 361.184 701.532 362.844Q704.606 364.504 707.649 366.218Q710.692 367.932 713.705 369.699Q716.718 371.466 719.699 373.286Q722.68 375.107 725.629 376.979Q728.577 378.851 731.492 380.776Q734.407 382.7 737.288 384.675Q740.169 386.65 743.014 388.676C756.924 398.492 771.597 409.195 783.026 421.916L783.41 422.35C776.658 420.481 772.771 412.711 766.291 409.556C765.549 411.208 764.856 412.838 764.234 414.54C763.47 416.634 760.698 417.628 760.735 418.794L760.607 418.211C760.7 418.387 760.773 418.574 760.884 418.739C763.358 422.382 768.743 423.053 770.282 427.977C765.072 424.686 760.323 420.235 755.557 416.325Q745.077 407.667 734.128 399.61C701.351 375.438 664.392 358.097 625.521 346.16Q621.323 344.863 617.096 343.661Q612.869 342.459 608.616 341.353Q604.363 340.247 600.087 339.238Q595.81 338.228 591.511 337.316Q587.213 336.404 582.895 335.589Q578.577 334.774 574.241 334.057Q569.906 333.34 565.555 332.721Q561.205 332.103 556.841 331.583Q552.478 331.062 548.104 330.641Q543.73 330.22 539.347 329.898Q534.965 329.576 530.576 329.353Q526.188 329.13 521.795 329.006Q517.403 328.883 513.008 328.859Q508.614 328.834 504.221 328.91Q499.827 328.985 495.436 329.16Q491.045 329.334 486.66 329.608Q482.274 329.882 477.895 330.255Q473.517 330.629 469.148 331.101Q464.779 331.573 460.422 332.144Q456.065 332.715 451.722 333.384Q447.379 334.053 443.052 334.821Q438.726 335.588 434.417 336.453Q430.109 337.318 425.822 338.281Q421.534 339.243 417.269 340.302Q413.004 341.361 408.765 342.516Q404.525 343.672 400.313 344.923Q396.1 346.174 391.917 347.52Q387.734 348.866 383.583 350.306Q379.431 351.746 375.313 353.28Q371.195 354.814 367.113 356.441Q363.031 358.067 358.987 359.786Q354.942 361.504 350.938 363.314Q328.739 373.707 307.994 386.763C301.592 390.735 295.501 395.564 288.829 399.046L288.385 399.271C290.375 394.442 296.942 392.872 300.531 389.169C298.151 387.46 297.009 385.277 295.067 383.228C294.259 382.376 293.717 381.369 292.516 381.339C290.978 382.458 289.94 383.144 288.004 383.282C287.857 383.292 287.71 383.295 287.562 383.302Z"/>
	<defs>
		<linearGradient id="gradient_8" gradientUnits="userSpaceOnUse" x1="190.50145" y1="824.2735" x2="211.28249" y2="378.19312">
			<stop offset="0" stop-color="#1C1F37"/>
			<stop offset="1" stop-color="#654E81"/>
		</linearGradient>
	</defs>
	<path fill="url(#gradient_8)" d="M287.562 383.302C287.71 383.295 287.857 383.292 288.004 383.282C289.94 383.144 290.978 382.458 292.516 381.339C293.717 381.369 294.259 382.376 295.067 383.228C297.009 385.277 298.151 387.46 300.531 389.169C296.942 392.872 290.375 394.442 288.385 399.271C282.112 404.646 275.125 409.159 268.706 414.353Q249.745 429.918 232.673 447.533C170.823 510.772 129.585 598.372 122.861 686.821C120.979 711.583 121.138 736.612 121.435 761.428C121.568 762.241 121.614 762.92 121.587 763.751C121.56 764.59 121.537 765.417 121.539 766.256L122.154 766.843C122.489 765.712 123.112 764.32 124.177 763.657C127.016 761.889 136.679 768.172 140.173 769.153C147.086 771.096 152.577 766.818 158.279 763.558C158.244 761.439 158.399 759.368 158.579 757.259Q158.889 762.613 159.128 767.971C152.943 775.318 145.974 782.744 141.189 791.087C136.354 797.318 130.567 813.043 126.389 816.86C125.616 817.567 124.37 817.783 123.378 818.009C122.516 818.689 121.659 819.239 120.706 819.784C119.409 819.478 117.641 818.76 116.366 818.674C114.354 818.538 112.513 821.009 109.969 820.572L109.661 819.97C109.077 818.851 108.728 818.385 107.685 817.699C106.988 797.397 107.483 777.068 107.526 756.76C107.574 734.255 107.08 711.627 108.668 689.167C110.698 660.44 116.681 631.334 124.874 603.759C146.653 530.455 190.651 465.474 247.3 414.576C259.583 403.539 272.951 391.217 287.562 383.302Z"/>
	<path fill="#FF8C41" d="M158.579 757.259Q158.889 762.613 159.128 767.971C152.943 775.318 145.974 782.744 141.189 791.087C136.354 797.318 130.567 813.043 126.389 816.86C125.616 817.567 124.37 817.783 123.378 818.009C123.183 817.783 122.981 817.562 122.792 817.33C122.015 816.378 121.726 815.449 121.568 814.248C120.718 807.806 121.319 800.816 121.258 794.298C121.155 783.452 120.298 772.226 121.435 761.428C121.568 762.241 121.614 762.92 121.587 763.751C121.56 764.59 121.537 765.417 121.539 766.256L122.154 766.843C122.489 765.712 123.112 764.32 124.177 763.657C127.016 761.889 136.679 768.172 140.173 769.153C147.086 771.096 152.577 766.818 158.279 763.558C158.244 761.439 158.399 759.368 158.579 757.259Z"/>
	<defs>
		<linearGradient id="gradient_9" gradientUnits="userSpaceOnUse" x1="510.68018" y1="808.89734" x2="531.33777" y2="256.68097">
			<stop offset="0" stop-color="#1F223C"/>
			<stop offset="1" stop-color="#7B5C96"/>
		</linearGradient>
	</defs>
	<path fill="url(#gradient_9)" d="M56.9413 674.561C59.0494 664.344 60.1425 653.826 61.8139 643.519Q65.5198 620.213 71.853 597.48Q73.2412 592.388 74.744 587.328Q76.2467 582.268 77.8632 577.244Q79.4796 572.219 81.209 567.233Q82.9383 562.246 84.7797 557.299Q86.6211 552.353 88.5735 547.449Q90.526 542.545 92.5885 537.687Q94.651 532.828 96.8226 528.018Q98.9942 523.207 101.274 518.446Q103.553 513.686 105.939 508.978Q108.326 504.27 110.818 499.617Q113.309 494.964 115.906 490.369Q118.502 485.773 121.201 481.238Q123.9 476.702 126.701 472.228Q129.501 467.754 132.402 463.345Q135.303 458.935 138.303 454.592Q141.302 450.249 144.399 445.975Q147.496 441.701 150.688 437.498Q153.88 433.294 157.167 429.164Q160.453 425.034 163.832 420.979Q167.21 416.924 170.68 412.946Q174.149 408.968 177.707 405.07Q181.265 401.171 184.91 397.354Q188.555 393.536 192.285 389.802Q196.015 386.068 199.829 382.419Q203.642 378.77 207.537 375.208Q211.432 371.645 215.406 368.172Q219.38 364.699 223.432 361.316Q227.483 357.933 231.61 354.642Q235.737 351.351 239.936 348.154Q244.136 344.958 248.407 341.856Q252.678 338.755 257.018 335.751Q261.358 332.747 265.764 329.841Q270.355 326.815 275.019 323.903Q279.683 320.99 284.417 318.193Q289.151 315.396 293.952 312.715Q298.753 310.035 303.618 307.473Q308.484 304.911 313.41 302.469Q318.337 300.027 323.322 297.706Q328.307 295.386 333.347 293.188Q338.387 290.99 343.48 288.917Q348.573 286.843 353.715 284.895Q358.857 282.947 364.045 281.126Q369.233 279.304 374.464 277.611Q379.696 275.917 384.967 274.352Q390.238 272.786 395.546 271.351Q400.854 269.916 406.195 268.611Q411.537 267.306 416.909 266.132Q422.281 264.958 427.68 263.917Q433.079 262.875 438.502 261.966Q443.925 261.057 449.368 260.281Q454.812 259.505 460.273 258.863Q465.734 258.221 471.209 257.713Q476.684 257.204 482.17 256.831Q487.656 256.457 493.149 256.217Q498.643 255.978 504.14 255.873Q509.638 255.769 515.136 255.799Q520.635 255.829 526.131 255.994Q531.627 256.159 537.118 256.458Q542.608 256.758 548.09 257.192Q553.571 257.625 559.04 258.194Q564.51 258.762 569.963 259.464Q575.417 260.166 580.852 261.001Q586.286 261.837 591.699 262.805Q597.112 263.773 602.499 264.874Q606.97 265.798 611.422 266.812Q615.873 267.826 620.303 268.93Q624.733 270.034 629.14 271.227Q633.547 272.421 637.929 273.703Q642.31 274.986 646.665 276.357Q651.02 277.728 655.346 279.187Q659.672 280.646 663.968 282.192Q668.264 283.739 672.527 285.372Q676.791 287.005 681.02 288.724Q685.25 290.443 689.444 292.248Q693.637 294.052 697.794 295.942Q701.95 297.831 706.067 299.804Q710.185 301.777 714.261 303.833Q718.338 305.889 722.371 308.027Q726.405 310.165 730.395 312.384Q734.385 314.604 738.329 316.904Q742.273 319.204 746.17 321.583Q750.066 323.962 753.914 326.42Q757.761 328.878 761.558 331.413Q765.355 333.948 769.1 336.56Q772.845 339.171 776.536 341.858Q780.227 344.545 783.863 347.306Q787.499 350.068 791.078 352.902Q794.658 355.736 798.179 358.643Q801.7 361.549 805.161 364.526Q808.623 367.503 812.023 370.549Q815.424 373.596 818.762 376.711Q822.1 379.826 825.374 383.007Q828.648 386.189 831.857 389.437Q835.066 392.684 838.209 395.996Q841.351 399.308 844.426 402.683Q847.501 406.058 850.507 409.494Q862.546 423.3 873.543 437.95Q884.54 452.599 894.436 468.013C928.442 519.846 949.737 580.522 961.193 641.204Q963.952 655.323 965.595 669.614C966.35 676.197 966.622 683.217 967.96 689.69Q969.691 728.071 969.91 766.491C970.052 786.197 969.717 805.938 970.111 825.639C969.616 823.816 969.148 823.115 967.738 821.871L967.728 819.625L967.189 819.365C967.004 819.494 966.825 819.63 966.635 819.752C962.433 822.458 960.256 818.285 953.963 827.148L954.291 758.448C954.551 732.969 955.271 707.349 952.827 681.95C949.543 647.818 941.682 614.193 931.789 581.428C931.395 581.185 930.915 581.045 930.606 580.699C929.226 579.157 919.411 554.305 917.387 549.934C907.951 529.561 897.149 509.238 885.238 490.189Q880.693 482.939 875.87 475.871Q871.047 468.803 865.954 461.928Q860.861 455.052 855.505 448.379Q850.149 441.706 844.538 435.246Q838.927 428.786 833.07 422.548Q827.213 416.31 821.119 410.304Q815.024 404.298 808.702 398.532Q802.379 392.767 795.837 387.252Q789.296 381.736 782.545 376.478Q775.795 371.22 768.845 366.228Q761.896 361.236 754.758 356.517Q747.62 351.798 740.305 347.359Q732.99 342.921 725.508 338.769Q718.026 334.617 710.389 330.759Q702.751 326.9 694.97 323.341Q687.189 319.782 679.276 316.527Q671.362 313.272 663.329 310.326Q655.295 307.381 647.153 304.749Q639.012 302.117 630.774 299.803Q622.536 297.488 614.215 295.495Q605.894 293.502 597.501 291.833Q589.109 290.164 580.658 288.822Q572.208 287.48 563.711 286.466Q555.215 285.453 546.686 284.77Q538.156 284.086 529.607 283.734Q521.058 283.382 512.501 283.362Q503.945 283.342 495.394 283.653Q486.843 283.965 478.31 284.608Q469.778 285.25 461.277 286.224Q452.776 287.197 444.319 288.499Q435.862 289.801 427.462 291.43Q419.062 293.059 410.731 295.013Q405.406 296.301 400.113 297.72Q394.821 299.138 389.565 300.686Q384.309 302.233 379.093 303.909Q373.876 305.584 368.702 307.387Q363.528 309.19 358.4 311.119Q353.272 313.048 348.192 315.102Q343.113 317.155 338.085 319.333Q333.057 321.51 328.084 323.81Q323.112 326.11 318.196 328.531Q313.281 330.952 308.427 333.493Q303.572 336.033 298.782 338.692Q293.991 341.35 289.267 344.125Q284.542 346.9 279.887 349.79Q275.232 352.68 270.649 355.683Q266.067 358.686 261.559 361.8Q257.051 364.914 252.62 368.138Q248.19 371.361 243.84 374.692Q239.489 378.023 235.222 381.459Q230.955 384.896 226.773 388.436Q222.591 391.976 218.497 395.617Q214.403 399.258 210.399 402.998Q206.395 406.738 202.484 410.576Q198.573 414.413 194.757 418.344Q190.941 422.276 187.223 426.3Q183.504 430.324 179.885 434.438Q176.266 438.551 172.749 442.752Q169.232 446.953 165.818 451.239Q162.405 455.525 159.098 459.893Q155.79 464.261 152.591 468.709Q149.391 473.157 146.301 477.682Q143.212 482.206 140.234 486.805Q137.256 491.404 134.391 496.075Q118.845 521.447 106.62 548.575Q101.524 559.854 97.0213 571.382C94.6711 577.39 90.1487 593.238 86.4721 597.666C82.9199 607.718 80.8908 618.265 78.6167 628.664Q74.8698 645.492 72.4334 662.559Q69.9971 679.627 68.8859 696.831C67.374 721.719 67.9719 746.786 68.0138 771.713L68.0649 804.777C68.0711 810.204 68.4635 815.95 67.9446 821.33C66.1707 819.867 68.4812 793.573 65.4982 787.751C64.7326 788.563 65.154 788.235 64.2539 788.759C63.147 787.408 62.1564 786.11 61.3093 784.578L61.0982 784.189C60.1641 784.164 59.3012 784.078 58.4509 784.559C52.9173 787.689 57.2355 806.24 55.3547 811.963C55.2584 812.256 55.1447 812.543 55.0397 812.833C54.2956 797.67 54.9525 782.202 54.9198 767C54.8534 736.093 54.7092 705.416 56.9413 674.561Z"/>
	<defs>
		<linearGradient id="gradient_10" gradientUnits="userSpaceOnUse" x1="510.96045" y1="580.63696" x2="503.42706" y2="271.45303">
			<stop offset="0" stop-color="#FF6998"/>
			<stop offset="1" stop-color="#FAA9D6"/>
		</linearGradient>
	</defs>
	<path fill="url(#gradient_10)" d="M86.4721 597.666C88.9445 586.56 92.9341 575.744 96.9076 565.108Q103.842 546.096 112.354 527.736Q120.867 509.376 130.897 491.799Q133.571 487.127 136.358 482.523Q139.146 477.918 142.045 473.383Q144.944 468.848 147.954 464.385Q150.963 459.922 154.081 455.534Q157.199 451.146 160.423 446.836Q163.647 442.526 166.976 438.296Q170.304 434.066 173.736 429.918Q177.167 425.771 180.698 421.709Q184.23 417.647 187.86 413.672Q191.49 409.698 195.216 405.813Q198.943 401.929 202.763 398.137Q206.583 394.345 210.495 390.647Q214.407 386.95 218.408 383.349Q222.409 379.749 226.497 376.247Q230.585 372.745 234.758 369.345Q238.93 365.944 243.185 362.647Q247.439 359.35 251.773 356.157Q256.107 352.965 260.518 349.88Q264.929 346.795 269.414 343.818Q273.898 340.842 278.455 337.976Q283.011 335.111 287.637 332.357Q292.262 329.604 296.953 326.965Q301.644 324.325 306.399 321.801Q311.153 319.278 315.968 316.871Q320.782 314.464 325.655 312.176Q330.527 309.888 335.454 307.72Q340.38 305.552 345.359 303.505Q350.337 301.458 355.364 299.534Q360.391 297.609 365.463 295.808Q370.536 294.007 375.651 292.331Q380.766 290.655 385.92 289.104Q391.075 287.554 396.266 286.13Q401.484 284.707 406.734 283.414Q411.985 282.12 417.267 280.956Q422.548 279.791 427.856 278.758Q433.164 277.724 438.496 276.821Q443.828 275.918 449.181 275.146Q454.534 274.375 459.904 273.735Q465.274 273.096 470.658 272.589Q476.042 272.082 481.437 271.707Q486.832 271.333 492.235 271.091Q497.637 270.849 503.044 270.741Q508.451 270.632 513.859 270.656Q519.267 270.681 524.673 270.838Q530.078 270.996 535.479 271.286Q540.879 271.577 546.27 272Q551.662 272.424 557.041 272.979Q562.42 273.535 567.784 274.223Q573.148 274.911 578.494 275.731Q583.839 276.551 589.163 277.502Q594.487 278.453 599.786 279.535Q605.084 280.617 610.355 281.829Q615.625 283.041 620.864 284.382Q626.103 285.723 631.308 287.193Q636.512 288.663 641.679 290.26Q646.845 291.858 651.971 293.582Q657.097 295.306 662.179 297.155Q667.261 299.005 672.296 300.979Q677.33 302.953 682.315 305.051Q687.3 307.148 692.231 309.368Q697.163 311.587 702.038 313.927Q706.914 316.267 711.73 318.727Q716.547 321.186 721.301 323.763Q726.055 326.341 730.745 329.034Q734.429 331.174 738.072 333.384Q741.714 335.595 745.314 337.874Q748.914 340.154 752.469 342.503Q756.024 344.851 759.534 347.267Q763.043 349.683 766.506 352.166Q769.968 354.649 773.382 357.198Q776.797 359.747 780.161 362.361Q783.526 364.975 786.84 367.653Q790.154 370.331 793.416 373.072Q796.678 375.813 799.887 378.616Q803.096 381.419 806.25 384.284Q809.405 387.148 812.504 390.072Q815.603 392.996 818.645 395.979Q821.688 398.962 824.672 402.003Q827.657 405.044 830.583 408.141Q833.509 411.239 836.374 414.392Q839.24 417.545 842.045 420.752Q844.85 423.959 847.593 427.22Q850.335 430.481 853.015 433.793Q855.695 437.106 858.311 440.469Q860.926 443.833 863.477 447.245Q866.028 450.658 868.513 454.12Q870.997 457.581 873.415 461.089Q875.833 464.597 878.184 468.151Q880.534 471.705 882.816 475.304Q885.097 478.902 887.31 482.543Q889.522 486.185 891.664 489.868Q893.806 493.551 895.877 497.275Q897.948 500.999 899.947 504.761Q901.946 508.524 903.873 512.324Q905.799 516.124 907.653 519.961Q909.506 523.798 911.286 527.669C919.321 545.087 926.76 562.88 931.789 581.428C931.395 581.185 930.915 581.045 930.606 580.699C929.226 579.157 919.411 554.305 917.387 549.934C907.951 529.561 897.149 509.238 885.238 490.189Q880.693 482.939 875.87 475.871Q871.047 468.803 865.954 461.928Q860.861 455.052 855.505 448.379Q850.149 441.706 844.538 435.246Q838.927 428.786 833.07 422.548Q827.213 416.31 821.119 410.304Q815.024 404.298 808.702 398.532Q802.379 392.767 795.837 387.252Q789.296 381.736 782.545 376.478Q775.795 371.22 768.845 366.228Q761.896 361.236 754.758 356.517Q747.62 351.798 740.305 347.359Q732.99 342.921 725.508 338.769Q718.026 334.617 710.389 330.759Q702.751 326.9 694.97 323.341Q687.189 319.782 679.276 316.527Q671.362 313.272 663.329 310.326Q655.295 307.381 647.153 304.749Q639.012 302.117 630.774 299.803Q622.536 297.488 614.215 295.495Q605.894 293.502 597.501 291.833Q589.109 290.164 580.658 288.822Q572.208 287.48 563.711 286.466Q555.215 285.453 546.686 284.77Q538.156 284.086 529.607 283.734Q521.058 283.382 512.501 283.362Q503.945 283.342 495.394 283.653Q486.843 283.965 478.31 284.608Q469.778 285.25 461.277 286.224Q452.776 287.197 444.319 288.499Q435.862 289.801 427.462 291.43Q419.062 293.059 410.731 295.013Q405.406 296.301 400.113 297.72Q394.821 299.138 389.565 300.686Q384.309 302.233 379.093 303.909Q373.876 305.584 368.702 307.387Q363.528 309.19 358.4 311.119Q353.272 313.048 348.192 315.102Q343.113 317.155 338.085 319.333Q333.057 321.51 328.084 323.81Q323.112 326.11 318.196 328.531Q313.281 330.952 308.427 333.493Q303.572 336.033 298.782 338.692Q293.991 341.35 289.267 344.125Q284.542 346.9 279.887 349.79Q275.232 352.68 270.649 355.683Q266.067 358.686 261.559 361.8Q257.051 364.914 252.62 368.138Q248.19 371.361 243.84 374.692Q239.489 378.023 235.222 381.459Q230.955 384.896 226.773 388.436Q222.591 391.976 218.497 395.617Q214.403 399.258 210.399 402.998Q206.395 406.738 202.484 410.576Q198.573 414.413 194.757 418.344Q190.941 422.276 187.223 426.3Q183.504 430.324 179.885 434.438Q176.266 438.551 172.749 442.752Q169.232 446.953 165.818 451.239Q162.405 455.525 159.098 459.893Q155.79 464.261 152.591 468.709Q149.391 473.157 146.301 477.682Q143.212 482.206 140.234 486.805Q137.256 491.404 134.391 496.075Q118.845 521.447 106.62 548.575Q101.524 559.854 97.0213 571.382C94.6711 577.39 90.1487 593.238 86.4721 597.666Z"/>
	<defs>
		<linearGradient id="gradient_11" gradientUnits="userSpaceOnUse" x1="514.52155" y1="971.15063" x2="510.46072" y2="739.37524">
			<stop offset="0" stop-color="#91D1F7"/>
			<stop offset="1" stop-color="#CEEEFB"/>
		</linearGradient>
	</defs>
	<path fill="url(#gradient_11)" d="M576.504 821.324C597.229 806.66 616.829 800.806 642.315 805.24C647.544 806.15 659.285 811.76 663.809 808.665C670.532 804.066 673.644 793.516 679.001 787.229C706.7 754.727 747.454 737.458 790.155 744.438C821.41 749.546 849.541 767.952 867.873 793.618C872.069 799.493 875.452 805.549 878.54 812.064C880.342 815.865 881.968 820.003 884.118 823.606C884.19 823.042 884.464 822.165 884.21 821.656L885.552 821.004L884.75 820.779L885.283 821.77L885.031 821.47C886.496 822.064 887.829 823.393 889.393 823.665C893.081 824.308 895.935 821.09 899.712 822.776C904.326 824.837 909.814 824.102 914.677 823.473C916.988 823.174 921.184 825.17 923.001 824.355C924.868 823.518 925.217 821.264 927.514 821.003C927.688 820.983 927.855 821.082 928.025 821.121L927.285 822.476C930.054 822.64 932.72 822.935 935.366 823.802C937.04 824.35 937.632 824.133 939.271 823.605L939.785 823.811C942.886 825.089 950.844 831.012 953.578 830.317C954.116 829.294 953.988 828.266 953.963 827.148C960.256 818.285 962.433 822.458 966.635 819.752C966.825 819.63 967.004 819.494 967.189 819.365L967.728 819.625L967.738 821.871C969.148 823.115 969.616 823.816 970.111 825.639C970.093 829.263 970.666 835.045 967.787 837.773C967.17 838.358 967.33 838.22 966.557 838.414C956.344 881.061 932.137 916.651 894.565 939.652C870.766 954.221 842.534 963.422 814.807 966.301C804.542 967.367 794.051 966.954 783.735 966.951L736.987 966.935L584.109 966.927L337.1 966.924L262.848 966.947C235.673 966.964 208.777 968.212 182.139 961.758C137.23 950.876 98.9407 924.69 74.8026 884.942C65.8475 870.196 61.0037 855.804 58.4783 838.851C57.5642 838.76 57.0095 838.539 56.31 837.897C53.177 835.022 54.8879 817.343 55.0397 812.833C55.1447 812.543 55.2584 812.256 55.3547 811.963C57.2355 806.24 52.9173 787.689 58.4509 784.559C59.3012 784.078 60.1641 784.164 61.0982 784.189L61.3093 784.578C62.1564 786.11 63.147 787.408 64.2539 788.759C65.154 788.235 64.7326 788.563 65.4982 787.751C68.4812 793.573 66.1707 819.867 67.9446 821.33C68.1911 825.561 68.0432 829.879 68.0683 834.12C81.7469 824.648 91.6456 821.283 107.685 817.699C108.728 818.385 109.077 818.851 109.661 819.97L109.969 820.572C112.513 821.009 114.354 818.538 116.366 818.674C117.641 818.76 119.409 819.478 120.706 819.784C121.659 819.239 122.516 818.689 123.378 818.009C124.37 817.783 125.616 817.567 126.389 816.86C130.567 813.043 136.354 797.318 141.189 791.087C141.443 790.93 141.698 790.776 141.95 790.617C142.752 790.111 143.229 789.604 143.793 788.835C143.848 791.096 141.176 791.714 143.76 793.974C146.143 796.058 149.765 793.012 151.455 796.539L151.521 796.348C151.871 798.053 151.187 799.915 150.77 801.582C155.601 795.117 160.121 788.597 165.568 782.603Q167.293 780.689 169.1 778.851Q170.906 777.013 172.791 775.255Q174.675 773.497 176.634 771.822Q178.592 770.147 180.622 768.558Q182.651 766.97 184.747 765.471Q186.843 763.971 189.002 762.564Q191.161 761.157 193.379 759.845Q195.597 758.532 197.87 757.317Q200.142 756.102 202.465 754.986Q204.788 753.871 207.158 752.856Q209.527 751.842 211.938 750.932Q214.348 750.021 216.796 749.216Q219.244 748.41 221.725 747.711Q224.206 747.013 226.714 746.422Q229.222 745.831 231.754 745.349Q234.286 744.868 236.836 744.496Q238.293 744.29 239.755 744.119Q241.218 743.949 242.683 743.815Q244.149 743.682 245.618 743.584Q247.087 743.487 248.557 743.426Q250.028 743.365 251.5 743.34Q252.971 743.315 254.443 743.327Q255.915 743.339 257.386 743.387Q258.858 743.435 260.327 743.52Q261.797 743.605 263.263 743.726Q264.73 743.847 266.194 744.004Q267.657 744.162 269.117 744.355Q270.576 744.549 272.03 744.779Q273.483 745.008 274.931 745.274Q276.379 745.54 277.82 745.841Q279.26 746.143 280.693 746.48Q282.126 746.817 283.55 747.189Q284.974 747.561 286.389 747.969Q287.803 748.377 289.207 748.819Q290.611 749.262 292.003 749.739Q293.396 750.216 294.776 750.727Q296.156 751.239 297.523 751.784Q298.89 752.33 300.243 752.909Q301.597 753.488 302.935 754.101Q304.273 754.713 305.596 755.359Q306.919 756.005 308.226 756.683Q309.532 757.361 310.821 758.071Q312.11 758.781 313.382 759.523Q314.653 760.265 315.905 761.039Q317.158 761.812 318.391 762.616Q319.624 763.42 320.836 764.254Q322.049 765.088 323.241 765.953Q324.432 766.817 325.602 767.71C332.836 773.183 339.984 779.431 345.899 786.351C348.93 789.897 354.169 798.954 357.112 801.11L358.735 800.696C362.334 802.918 366.103 805.921 370.512 804.948C373.873 804.206 377.056 803.309 380.516 803.098C382.671 802.967 384.946 803.389 387.058 803.066L388.179 804.356C402.009 803.244 413.486 804.051 426.647 808.765C426.171 808.337 425.778 807.877 425.358 807.395L426.027 806.709C428.058 806.402 430.276 807.713 432.197 808.447C433.82 805.927 436.665 805.653 439.353 804.41C439.226 803.216 439.066 802.701 439.472 801.559C444.46 802.053 447.075 806.073 451.498 807.136C451.801 807.208 452.107 807.266 452.411 807.331C473.245 821.26 482.422 843.517 488.793 866.613C504.485 862.535 520.075 862.443 535.828 866.44C539.482 853.03 546.782 830.952 557.165 821.487C557.42 821.392 557.678 821.305 557.929 821.202C563.193 819.041 568.837 807.347 575.721 807.386C578.1 808.282 578.783 809.766 579.797 811.98L580.033 812.505L581.299 813.19L582.042 812.92L582.144 813.141C580.648 816.317 578.252 818.405 576.504 821.324Z"/>
	<path fill="#1B1E36" d="M357.112 801.11L358.735 800.696C362.334 802.918 366.103 805.921 370.512 804.948C373.873 804.206 377.056 803.309 380.516 803.098C382.671 802.967 384.946 803.389 387.058 803.066L388.179 804.356C382.198 805.245 370.155 809.814 365.057 808.729C360.918 807.849 359.197 804.393 357.112 801.11Z"/>
	<path fill="#1B1E36" d="M953.963 827.148C960.256 818.285 962.433 822.458 966.635 819.752C966.825 819.63 967.004 819.494 967.189 819.365L967.728 819.625L967.738 821.871C969.148 823.115 969.616 823.816 970.111 825.639C970.093 829.263 970.666 835.045 967.787 837.773C967.17 838.358 967.33 838.22 966.557 838.414C958.415 838.518 962.955 845.123 957.769 847.963C956.713 848.541 955.113 848.901 953.927 848.54C946.877 846.397 936.745 838.568 928.521 835.278C921.653 832.531 914.606 830.074 907.155 829.799C901.393 829.586 894.367 832.102 888.931 830.065C886.102 829.005 885.221 826.148 884.118 823.606C884.19 823.042 884.464 822.165 884.21 821.656L885.552 821.004L884.75 820.779L885.283 821.77L885.031 821.47C886.496 822.064 887.829 823.393 889.393 823.665C893.081 824.308 895.935 821.09 899.712 822.776C904.326 824.837 909.814 824.102 914.677 823.473C916.988 823.174 921.184 825.17 923.001 824.355C924.868 823.518 925.217 821.264 927.514 821.003C927.688 820.983 927.855 821.082 928.025 821.121L927.285 822.476C930.054 822.64 932.72 822.935 935.366 823.802C937.04 824.35 937.632 824.133 939.271 823.605L939.785 823.811C942.886 825.089 950.844 831.012 953.578 830.317C954.116 829.294 953.988 828.266 953.963 827.148Z"/>
	<path fill="#1B1E36" d="M55.0397 812.833C55.1447 812.543 55.2584 812.256 55.3547 811.963C57.2355 806.24 52.9173 787.689 58.4509 784.559C59.3012 784.078 60.1641 784.164 61.0982 784.189L61.3093 784.578C62.1564 786.11 63.147 787.408 64.2539 788.759C65.154 788.235 64.7326 788.563 65.4982 787.751C68.4812 793.573 66.1707 819.867 67.9446 821.33C68.1911 825.561 68.0432 829.879 68.0683 834.12C81.7469 824.648 91.6456 821.283 107.685 817.699C108.728 818.385 109.077 818.851 109.661 819.97L109.969 820.572C112.513 821.009 114.354 818.538 116.366 818.674C117.641 818.76 119.409 819.478 120.706 819.784C121.659 819.239 122.516 818.689 123.378 818.009C124.37 817.783 125.616 817.567 126.389 816.86C130.567 813.043 136.354 797.318 141.189 791.087C141.443 790.93 141.698 790.776 141.95 790.617C142.752 790.111 143.229 789.604 143.793 788.835C143.848 791.096 141.176 791.714 143.76 793.974C146.143 796.058 149.765 793.012 151.455 796.539L151.521 796.348C151.871 798.053 151.187 799.915 150.77 801.582C148.753 805.811 146.247 809.817 144.114 813.997C141.185 819.736 138.57 825.674 135.876 831.527C120.429 831.391 105.735 829.66 91.2993 836.448C86.6686 838.625 69.295 851.343 65.039 846.517C63.1235 844.344 63.5411 840.907 61.0183 839.053C60.1729 838.981 59.3257 838.891 58.4783 838.851C57.5642 838.76 57.0095 838.539 56.31 837.897C53.177 835.022 54.8879 817.343 55.0397 812.833Z"/>
	<path fill="#1B1E36" d="M426.647 808.765C426.171 808.337 425.778 807.877 425.358 807.395L426.027 806.709C428.058 806.402 430.276 807.713 432.197 808.447C433.82 805.927 436.665 805.653 439.353 804.41C439.226 803.216 439.066 802.701 439.472 801.559C444.46 802.053 447.075 806.073 451.498 807.136C451.801 807.208 452.107 807.266 452.411 807.331C473.245 821.26 482.422 843.517 488.793 866.613C504.485 862.535 520.075 862.443 535.828 866.44C539.482 853.03 546.782 830.952 557.165 821.487C557.42 821.392 557.678 821.305 557.929 821.202C563.193 819.041 568.837 807.347 575.721 807.386C578.1 808.282 578.783 809.766 579.797 811.98L580.033 812.505L581.299 813.19L582.042 812.92L582.144 813.141C580.648 816.317 578.252 818.405 576.504 821.324C576.227 821.944 576.418 821.656 575.79 822.241C565.194 832.117 557.164 843.671 552.817 857.551C550.911 863.638 551.025 874.304 546.641 878.934C543.123 882.649 537.418 881.13 532.997 880.331C521.282 878.213 510.714 877.34 498.832 879.078C492.869 879.95 487.069 881.481 481.033 881.873C479.096 880.814 477.571 879.626 475.935 878.147C473.92 870.522 472.867 862.695 470.164 855.246C462.435 833.942 446.969 818.295 426.647 808.765Z"/>
</svg>
